<?xml version="1.0" encoding="UTF-8" standalone="no"?>
<svg
   xmlns:dc="http://purl.org/dc/elements/1.1/"
   xmlns:cc="http://creativecommons.org/ns#"
   xmlns:rdf="http://www.w3.org/1999/02/22-rdf-syntax-ns#"
   xmlns:svg="http://www.w3.org/2000/svg"
   xmlns="http://www.w3.org/2000/svg"
   viewBox="0 0 58 58"
   height="58"
   width="58"
   version="1.1"
   id="svg2">
  <metadata
     id="metadata8">
    <rdf:RDF>
      <cc:Work
         rdf:about="">
        <dc:format>image/svg+xml</dc:format>
        <dc:type
           rdf:resource="http://purl.org/dc/dcmitype/StillImage" />
        <dc:title></dc:title>
      </cc:Work>
    </rdf:RDF>
  </metadata>
  <defs
     id="defs6" />
  <path
     id="path3338"
     d="M 18.993526,57.125625 C 11.907702,54.800692 5.9071582,49.698185 2.3818042,43 -0.33712578,37.834025 -0.16773278,25.84843 2.7007612,20.431786 5.5511122,15.049404 11.606798,9.6974844 17.311915,7.5186803 22.913688,5.3793435 31.736886,5.7796808 37.241183,8.4229365 c 5.35957,2.5737575 3.63324,3.8514015 -1.89798,1.4046792 C 21.556238,3.7289863 4.5860502,13.093713 2.4123112,28 l -0.656221,4.5 5.900952,-5.75 C 10.902566,23.5875 13.980796,21 14.497552,21 c 0.516757,0 3.213664,2.245858 5.993127,4.990794 L 25.544248,30.981589 40.009193,16.490794 54.474133,2 47.737063,2 c -3.82471,0 -6.73706,-0.4322884 -6.73706,-1 0,-0.58823529 3.5,-1 8.5,-1 l 8.5,0 0,8.5 c 0,5 -0.41177,8.5 -1,8.5 -0.56773,0 -1,-2.912698 -1,-6.738095 l 0,-6.7380955 -5.23961,5.2396044 c -4.93386,4.9338611 -5.15653,5.3708091 -3.81603,7.4880951 5.18534,8.190125 6.43755,16.841491 3.53696,24.436576 -2.19354,5.743688 -7.57734,11.810088 -12.8837,14.517191 -4.379103,2.234053 -14.472634,3.275926 -18.604097,1.920349 z"
     style="fill:#add136;fill-opacity:1" />
</svg>
